<svg xmlns="http://www.w3.org/2000/svg" viewBox="0 0 100 100">
  <defs>
    <linearGradient id="bg" x1="0%" y1="0%" x2="100%" y2="100%">
      <stop offset="0%" style="stop-color:#006876"/>
      <stop offset="100%" style="stop-color:#004F59"/>
    </linearGradient>
  </defs>
  <!-- Background circle -->
  <circle cx="50" cy="50" r="48" fill="url(#bg)"/>
  <!-- Fork -->
  <g fill="white">
    <!-- Fork handle -->
    <rect x="28" y="45" width="6" height="35" rx="3"/>
    <!-- Fork tines -->
    <rect x="22" y="20" width="4" height="22" rx="2"/>
    <rect x="29" y="20" width="4" height="22" rx="2"/>
    <rect x="36" y="20" width="4" height="22" rx="2"/>
    <!-- Fork base connecting tines -->
    <rect x="22" y="38" width="18" height="10" rx="3"/>
  </g>
  <!-- Knife -->
  <g fill="white">
    <!-- Knife handle -->
    <rect x="66" y="45" width="6" height="35" rx="3"/>
    <!-- Knife blade -->
    <path d="M66 20 L72 20 L72 48 L66 48 L66 20" rx="2"/>
    <path d="M72 20 Q78 25 78 35 Q78 45 72 48 L72 20"/>
  </g>
</svg>
